<svg viewBox="0 0 512 512" xmlns="http://www.w3.org/2000/svg">
  <!-- Three hearts cluster -->
  <path d="M200,320 L130,245 Q110,225 110,195 Q110,165 135,155 Q160,145 180,165 L200,185 L220,165 Q240,145 265,155 Q290,165 290,195 Q290,225 270,245 Z" fill="#FF647D" stroke="#0B2E3A" stroke-width="4"/>
  <path d="M330,280 L270,215 Q255,200 255,175 Q255,150 275,142 Q295,134 310,149 L330,169 L350,149 Q365,134 385,142 Q405,150 405,175 Q405,200 390,215 Z" fill="#46CAF4" stroke="#0B2E3A" stroke-width="4"/>
  <path d="M260,390 L200,330 Q185,315 185,290 Q185,265 205,257 Q225,249 240,264 L260,284 L280,264 Q295,249 315,257 Q335,265 335,290 Q335,315 320,330 Z" fill="#A67DFF" stroke="#0B2E3A" stroke-width="4"/>
</svg>