<svg viewBox="0 0 512 512" xmlns="http://www.w3.org/2000/svg">
  <!-- Scalloped outline -->
  <path d="M256,80 Q290,80 310,100 Q330,120 360,120 Q390,120 410,140 Q430,160 430,190 Q430,220 410,240 Q410,270 410,300 Q410,330 390,350 Q370,370 340,370 Q310,370 290,390 Q270,410 240,410 Q210,410 190,390 Q170,370 140,370 Q110,370 90,350 Q70,330 70,300 Q70,270 70,240 Q50,220 50,190 Q50,160 70,140 Q90,120 120,120 Q150,120 170,100 Q190,80 220,80 Q240,80 256,80 Z" fill="none" stroke="#8BC0FF" stroke-width="6"/>
</svg>